<svg xmlns="http://www.w3.org/2000/svg" viewBox="0 0 220 180">
  <defs>
    <linearGradient id="wood" x1="20" y1="30" x2="190" y2="150"><stop offset="0" stop-color="#a64b10"/><stop offset=".52" stop-color="#d46b1e"/><stop offset="1" stop-color="#7e350e"/></linearGradient>
    <linearGradient id="gold" x1="20" y1="12" x2="200" y2="160"><stop offset="0" stop-color="#fff07a"/><stop offset=".45" stop-color="#ffc400"/><stop offset="1" stop-color="#e08100"/></linearGradient>
    <filter id="sh" x="-20%" y="-20%" width="140%" height="140%"><feDropShadow dx="0" dy="8" stdDeviation="7" flood-color="#5c3400" flood-opacity=".25"/></filter>
  </defs>
  <g filter="url(#sh)">
    <path d="M31 79c0-38 31-69 69-69h20c38 0 69 31 69 69v18H31V79z" fill="url(#wood)" stroke="#6c2f0d" stroke-width="4"/>
    <path d="M24 76h172v77c0 10-8 18-18 18H42c-10 0-18-8-18-18V76z" fill="url(#wood)" stroke="#6c2f0d" stroke-width="4"/>
    <path d="M24 74h172v26H24zM36 20h22v151H36zM162 20h22v151h-22zM24 145h172v28H24z" fill="url(#gold)"/>
    <rect x="88" y="92" width="44" height="52" rx="9" fill="url(#gold)" stroke="#c36b00" stroke-width="4"/>
    <path d="M110 110c-6 0-11 5-11 11 0 4 2 7 5 9l-5 11h22l-5-11c3-2 5-5 5-9 0-6-5-11-11-11z" fill="#5d2a0a"/>
    <path d="M51 49h118M42 119h136M44 142h132" stroke="#74310c" stroke-width="3" opacity=".45"/>
    <path d="M55 32c26-18 83-17 112 2" stroke="#fff" stroke-width="8" opacity=".18" stroke-linecap="round"/>
  </g>
</svg>